<svg version="1.1" viewBox="0.0 0.0 241.98950131233596 250.79790026246718" fill="none" stroke="none" stroke-linecap="square" stroke-miterlimit="10" xmlns:xlink="http://www.w3.org/1999/xlink" xmlns="http://www.w3.org/2000/svg"><clipPath id="p.0"><path d="m0 0l241.9895 0l0 250.7979l-241.9895 0l0 -250.7979z" clip-rule="nonzero"/></clipPath><g clip-path="url(#p.0)"><path fill="#000000" fill-opacity="0.0" d="m0 0l241.9895 0l0 250.7979l-241.9895 0z" fill-rule="evenodd"/><path fill="#000000" fill-opacity="0.0" d="m9.617214 337.5223l450.92914 0l0 84.8504l-450.92914 0z" fill-rule="evenodd"/><path fill="#000000" fill-opacity="0.0" d="m-2.6745408 -78.2231l247.3386 0l0 407.24408l-247.3386 0z" fill-rule="evenodd"/><path fill="#0180d5" d="m108.04421 157.66438l-29.6875 0l0 80.3125l-54.843754 0l0 -227.5l89.53125 0q40.468742 0 63.281242 17.96875q22.8125 17.968748 22.8125 50.78125q0 23.75 -9.609375 39.375q-9.609375 15.625 -30.078125 25.3125l47.5 91.71875l0 2.34375l-58.75 0l-40.156242 -80.3125zm-29.6875 -42.34375l34.6875 0q15.624992 0 23.515617 -8.203125q7.890625 -8.203125 7.890625 -22.890625q0 -14.6875 -7.96875 -23.046875q-7.96875 -8.359375 -23.437492 -8.359375l-34.6875 0l0 62.5z" fill-rule="nonzero"/><path fill="#999999" d="m154.92134 155.3116l8.062988 -8.094498l46.078735 46.07875l-8.062988 8.094482z" fill-rule="evenodd"/><path fill="#666666" d="m167.60316 140.03813l5.32283 5.3228455l-19.874023 19.874008l-5.32283 -5.32283z" fill-rule="evenodd"/><path fill="#ffffff" d="m97.17192 147.52505l57.984253 -57.98426l23.118103 23.11811l-57.984245 57.984253z" fill-rule="evenodd"/><path fill="#ffffff" d="m104.72806 155.13647l-16.031494 -15.968506l23.11811 -23.11811l16.031494 15.968498z" fill-rule="evenodd"/><path fill="#ffffff" d="m144.69635 79.238846l0 0c11.219635 10.436874 12.693222 27.111626 3.291336 37.244095c-9.401886 10.132469 -26.118942 9.885696 -37.338585 -0.5511856l0 0c20.598808 0.2590866 35.818184 -16.142921 34.04725 -36.69291z" fill-rule="evenodd"/><path fill="#ffffff" d="m116.664055 129.65732l-6.0787354 -6.078743l6.645668 -6.645668l6.0787354 6.078743z" fill-rule="evenodd"/><path fill="#ffffff" d="m90.526566 140.95052l-35.086613 -35.086617l6.645668 -6.645668l35.086613 35.08661z" fill-rule="evenodd"/><path fill="#ffffff" d="m120.37533 125.08662l-42.14173 0l0 -9.984253l42.14173 0z" fill-rule="evenodd"/><path fill="#ffffff" d="m110.33465 134.17323l-23.55906 0l0 -10.393707l23.55906 0z" fill-rule="evenodd"/><path fill="#ffffff" d="m144.91696 80.09976l0.3779602 -0.37795258l32.94487 32.944885l-0.37794495 0.37795258z" fill-rule="evenodd"/><path fill="#ffffff" d="m146.03516 86.10984l2.740158 -2.740158l8.094498 8.09449l-2.740158 2.740158z" fill-rule="evenodd"/><path fill="#ffffff" d="m59.198483 109.65393l-35.086617 -35.086617l6.64567 -6.645668l35.086617 35.086617z" fill-rule="evenodd"/><path fill="#ffffff" d="m22.971128 74.54068l0 -58.582676l56.06299 0l0 58.582676z" fill-rule="evenodd"/><path fill="#ffffff" d="m105.80985 53.218044l-35.37008 -35.37008l6.645668 -6.64567l35.37008 35.37008z" fill-rule="evenodd"/><path fill="#ffffff" d="m77.03412 17.506561l-54.29921 0l0 -6.4881887l54.29921 0z" fill-rule="evenodd"/><path fill="#ffffff" d="m105.81628 53.624672l-27.811028 0l0 -13.29134l27.811028 0z" fill-rule="evenodd"/><path fill="#ffffff" d="m93.396324 43.595802l-15.149605 0l0 -13.858269l15.149605 0z" fill-rule="evenodd"/><path fill="#ffffff" d="m83.678474 30.509186l-6.645668 0l0 -5.259842l6.645668 0z" fill-rule="evenodd"/><path fill="#ffffff" d="m77.07874 12.212599l-53.007877 0l0 -2.1417322l53.007877 0z" fill-rule="evenodd"/><path fill="#ffffff" d="m79.062996 87.055115l-41.79528 0l0 -19.02362l41.79528 0z" fill-rule="evenodd"/><path fill="#ffffff" d="m79.03543 98.67979l-29.039368 0l0 -13.102356l29.039368 0z" fill-rule="evenodd"/><path fill="#ffffff" d="m79.063 110.178474l-17.417324 0l0 -13.102356l17.417324 0z" fill-rule="evenodd"/><path fill="#ffffff" d="m79.03543 115.70079l-12.188972 0l0 -13.102364l12.188972 0z" fill-rule="evenodd"/><path fill="#ffffff" d="m104.685036 53.624672l7.574806 -7.244095l7.574806 7.244095z" fill-rule="evenodd"/><path fill="#70c6ff" fill-opacity="0.8608" d="m28.08924 42.71522l0 0c0 -7.462364 6.049444 -13.511808 13.511812 -13.511808l0 0c3.5835533 0 7.020336 1.4235611 9.554291 3.9575176c2.5339584 2.5339546 3.9575195 5.9707375 3.9575195 9.554291l0 0c0 7.462368 -6.049446 13.511814 -13.51181 13.511814l0 0c-7.462368 0 -13.511812 -6.049446 -13.511812 -13.511814z" fill-rule="evenodd"/><path fill="#1589d7" fill-opacity="0.8101" d="m34.60105 31.120735l0 0c0 -9.201847 7.459568 -16.661419 16.661415 -16.661419l0 0c4.4188843 0 8.65678 1.7553949 11.781403 4.8800173c3.1246185 3.1246204 4.8800125 7.3625183 4.8800125 11.781401l0 0c0 9.201847 -7.459568 16.661419 -16.661415 16.661419l0 0c-9.201847 0 -16.661415 -7.459572 -16.661415 -16.661419z" fill-rule="evenodd"/><path fill="#91d3ff" fill-opacity="0.8608" d="m46.28609 48.498688l0 0c0 -5.253227 4.4277954 -9.51181 9.889763 -9.51181l0 0c2.6229286 0 5.1384277 1.0021324 6.9931183 2.785946c1.8546867 1.7838097 2.8966484 4.2031746 2.8966484 6.7258644l0 0c0 5.253227 -4.427803 9.51181 -9.889767 9.51181l0 0c-5.4619675 0 -9.889763 -4.258583 -9.889763 -9.51181z" fill-rule="evenodd"/><path fill="#fff2cc" d="m118.114174 88.81233l10.371315 -2.2271042l2.2271118 -10.371315l2.2271118 10.371315l10.371307 2.2271042l-10.371307 2.2271118l-2.2271118 10.371315l-2.2271118 -10.371315z" fill-rule="evenodd"/><path fill="#fff2cc" d="m88.71916 120.3937l13.716064 -2.6669617l2.9453506 -12.419655l2.9453506 12.419655l13.716064 2.6669617l-13.716064 2.6669617l-2.9453506 12.419655l-2.9453506 -12.419655z" fill-rule="evenodd"/><path fill="#f3f3f3" d="m145.32808 126.88976l0 0c0 -7.462364 6.0494537 -13.51181 13.51181 -13.51181l0 0c3.5835571 0 7.02034 1.4235611 9.554306 3.9575195c2.5339508 2.5339508 3.9575043 5.9707336 3.9575043 9.554291l0 0c0 7.462364 -6.0494385 13.511818 -13.51181 13.511818l0 0c-7.4623566 0 -13.51181 -6.0494537 -13.51181 -13.511818z" fill-rule="evenodd"/><path fill="#f3f3f3" d="m147.22835 101.54068l0 0c0 -7.462364 6.0494385 -13.51181 13.51181 -13.51181l0 0c3.5835571 0 7.02034 1.4235611 9.554291 3.9575195c2.5339508 2.5339584 3.9575195 5.9707413 3.9575195 9.554291l0 0c0 7.462372 -6.0494385 13.51181 -13.51181 13.51181l0 0c-7.462372 0 -13.51181 -6.0494385 -13.51181 -13.51181z" fill-rule="evenodd"/><path fill="#f3f3f3" d="m103.59843 158.68636l0 0c0 -7.462372 6.0494385 -13.51181 13.51181 -13.51181l0 0c3.5835571 0 7.02034 1.4235535 9.554291 3.9575195c2.5339584 2.5339508 3.957512 5.9707336 3.957512 9.554291l0 0c0 7.4623566 -6.0494385 13.51181 -13.511803 13.51181l0 0c-7.462372 0 -13.51181 -6.0494537 -13.51181 -13.51181z" fill-rule="evenodd"/><path fill="#efefef" d="m132.88188 141.16667l0 0c0 -5.253235 4.4277954 -9.51181 9.8897705 -9.51181l0 0c2.6229248 0 5.1384277 1.002121 6.9931183 2.7859344c1.8546906 1.7838135 2.896637 4.203186 2.896637 6.725876l0 0c0 5.2532196 -4.4277954 9.51181 -9.889755 9.51181l0 0c-5.461975 0 -9.8897705 -4.2585907 -9.8897705 -9.51181z" fill-rule="evenodd"/><path fill="#b7b7b7" d="m178.41592 112.19319l8.535431 8.535439l-58.519684 58.519676l-8.535431 -8.535431z" fill-rule="evenodd"/><path fill="#efefef" d="m121.3937 152.41045l0 0c0 -5.253235 4.4277954 -9.51181 9.889763 -9.51181l0 0c2.6229248 0 5.1384277 1.0021362 6.9931183 2.7859497c1.8546906 1.7837982 2.8966522 4.203171 2.8966522 6.7258606l0 0c0 5.253235 -4.4277954 9.51181 -9.8897705 9.51181l0 0c-5.4619675 0 -9.889763 -4.2585754 -9.889763 -9.51181z" fill-rule="evenodd"/><path fill="#efefef" d="m161.00787 110.02493l0 0c0 -5.253227 4.4277954 -9.51181 9.889755 -9.51181l0 0c2.62294 0 5.1384277 1.0021362 6.9931183 2.785942c1.8546906 1.7838135 2.8966522 4.2031784 2.8966522 6.725868l0 0c0 5.253227 -4.4277954 9.51181 -9.8897705 9.51181l0 0c-5.46196 0 -9.889755 -4.258583 -9.889755 -9.51181z" fill-rule="evenodd"/></g></svg>