<svg version="1.1" viewBox="0.0 0.0 335.0 333.0" fill="none" stroke="none" stroke-linecap="square" stroke-miterlimit="10" xmlns:xlink="http://www.w3.org/1999/xlink" xmlns="http://www.w3.org/2000/svg"><clipPath id="p.0"><path d="m0 0l335.0 0l0 333.0l-335.0 0l0 -333.0z" clip-rule="nonzero"/></clipPath><g clip-path="url(#p.0)"><path fill="#000000" fill-opacity="0.0" d="m0 0l335.0 0l0 333.0l-335.0 0z" fill-rule="evenodd"/><path fill="#0180d5" d="m7.641732 166.5l0 0c0 -88.5482 71.570984 -160.3307 159.85826 -160.3307l0 0c42.39705 0 83.05762 16.891937 113.036865 46.959778c29.979248 30.067837 46.82141 70.84859 46.82141 113.370926l0 0c0 88.5482 -71.571 160.33072 -159.85828 160.33072l0 0c-88.287285 0 -159.85826 -71.78252 -159.85826 -160.33072zm33.806828 0l0 0c0 69.87721 56.435154 126.523895 126.05144 126.523895c69.61629 0 126.05145 -56.646683 126.05145 -126.523895l0 0c0 -69.87721 -56.435165 -126.52388 -126.05145 -126.52388l0 0c-69.61629 0 -126.05144 56.64667 -126.05144 126.52388z" fill-rule="evenodd"/><path fill="#0180d5" d="m151.02756 64.64698l32.944885 0l0 110.92913l-32.944885 0z" fill-rule="evenodd"/><path fill="#0180d5" d="m151.02762 176.04335l21.637802 -24.881897l78.74016 68.44095l-21.637802 24.881882z" fill-rule="evenodd"/></g></svg>