<svg version="1.1" viewBox="0.0 0.0 429.78740157480314 341.13385826771656" fill="none" stroke="none" stroke-linecap="square" stroke-miterlimit="10" xmlns:xlink="http://www.w3.org/1999/xlink" xmlns="http://www.w3.org/2000/svg"><clipPath id="p.0"><path d="m0 0l429.7874 0l0 341.13385l-429.7874 0l0 -341.13385z" clip-rule="nonzero"/></clipPath><g clip-path="url(#p.0)"><path fill="#000000" fill-opacity="0.0" d="m0 0l429.7874 0l0 341.13385l-429.7874 0z" fill-rule="evenodd"/><path fill="#0180d5" d="m9.089239 84.56036l0 0c0 -8.062485 6.5359373 -14.598419 14.598425 -14.598419l0 0l0 0c3.8717422 0 7.5849094 1.5380402 10.322647 4.2757797c2.7377357 2.737732 4.2757797 6.450897 4.2757797 10.322639l0 170.4567c0 8.0625 -6.5359383 14.598419 -14.598427 14.598419l0 0l0 0c-8.062488 0 -14.598425 -6.535919 -14.598425 -14.598419z" fill-rule="evenodd"/><path fill="#0180d5" d="m9.089239 87.1168l0 0c0 -35.178284 27.783995 -63.73133 62.1379 -63.857857l0.10341644 29.442263c-18.13377 0.06961441 -32.798878 15.457592 -32.798878 34.415592z" fill-rule="evenodd"/><path fill="#0180d5" d="m72.961945 317.87534l0 0c-35.178288 0 -63.73133 -27.783997 -63.857857 -62.13791l29.442265 -0.10342407c0.06961441 18.13379 15.457592 32.79889 34.415592 32.79889z" fill-rule="evenodd"/><path fill="#0180d5" d="m70.2336 52.45538l0 0c-8.062489 0 -14.598427 -6.5359383 -14.598427 -14.598423l0 0l0 0c0 -3.871746 1.538044 -7.5849113 4.2757797 -10.322647c2.7377357 -2.7377357 6.450905 -4.2757797 10.322647 -4.2757797l286.2362 0c8.0625 0 14.598419 6.5359383 14.598419 14.598427l0 0l0 0c0 8.062485 -6.535919 14.598423 -14.598419 14.598423z" fill-rule="evenodd"/><path fill="#0180d5" d="m420.57742 87.1168l0 0c0 -35.178284 -27.783997 -63.73133 -62.13791 -63.857857l-0.103393555 29.442263c18.133759 0.06961441 32.79886 15.457592 32.79886 34.415592z" fill-rule="evenodd"/><path fill="#0180d5" d="m357.51443 317.87534l0 0c34.806183 0 63.056854 -27.785461 63.180695 -62.14029l-29.44226 -0.10342407l0 0c-0.06689453 18.134705 -15.152496 32.80127 -33.738434 32.80127z" fill-rule="evenodd"/><path fill="#0180d5" d="m74.979004 317.87534l0 0c-8.062492 0 -14.598427 -6.5359497 -14.598427 -14.598419l0 0l0 0c0 -3.8717651 1.538044 -7.5849304 4.2757797 -10.322662c2.7377396 -2.737732 6.450905 -4.2757874 10.322647 -4.2757874l286.2362 0c8.0625 0 14.59845 6.5359497 14.59845 14.59845l0 0l0 0c0 8.0624695 -6.5359497 14.598419 -14.59845 14.598419z" fill-rule="evenodd"/><path fill="#0180d5" d="m391.38058 84.56036l0 0c0 -8.062485 6.535919 -14.598419 14.598419 -14.598419l0 0l0 0c3.8717346 0 7.5849 1.5380402 10.322632 4.2757797c2.7377625 2.737732 4.2757874 6.450897 4.2757874 10.322639l0 170.4567c0 8.0625 -6.535919 14.598419 -14.598419 14.598419l0 0l0 0c-8.0625 0 -14.598419 -6.535919 -14.598419 -14.598419z" fill-rule="evenodd"/><path fill="#0180d5" d="m31.54726 70.59184l0 0c-6.1787853 -5.1793213 -6.9855022 -14.383938 -1.8018532 -20.55909l0 0l0 0c2.489277 -2.9654121 6.055298 -4.821335 9.913578 -5.159485c3.8582802 -0.33815002 7.692772 0.86917114 10.659927 3.356369l173.3097 145.27551c6.178772 5.1793213 6.985489 14.383942 1.8018494 20.559097l0 0l0 0c-5.183655 6.1751404 -14.39473 6.982422 -20.573517 1.8031158z" fill-rule="evenodd"/><path fill="#0180d5" d="m52.11819 295.58136l0 0c-5.701145 5.7011414 -14.941002 5.697632 -20.637798 -0.007873535l0 0l0 0c-2.7356968 -2.7398682 -4.2717667 -6.4551086 -4.2702904 -10.3284c0.0014781952 -3.873291 1.5403805 -7.587372 4.2781677 -10.325134l118.755905 -118.75592c5.7011414 -5.7011414 14.940994 -5.6976166 20.637802 0.007873535l0 0l0 0c5.6967926 5.70549 5.693268 14.952408 -0.007888794 20.65355z" fill-rule="evenodd"/><path fill="#0180d5" d="m380.8899 295.5814l0 0c5.7011414 5.7011414 14.9410095 5.6976013 20.637787 -0.007873535l0 0l0 0c2.7356873 -2.7398987 4.271759 -6.4551086 4.270294 -10.3284c-0.0014648438 -3.873291 -1.5403748 -7.587372 -4.2781677 -10.325165l-121.49606 -121.49605c-5.7011414 -5.7011414 -14.9410095 -5.6976166 -20.637787 0.007873535l0 0l0 0c-5.696808 5.70549 -5.693268 14.952393 0.007873535 20.65355z" fill-rule="evenodd"/><path fill="#0180d5" d="m399.0885 70.5925l0 0c6.1784363 -5.1797028 6.984894 -14.384632 1.8012695 -20.559788l0 0l0 0c-2.4892883 -2.9654121 -6.055237 -4.8212585 -9.913422 -5.159279c-3.8581848 -0.33802032 -7.692505 0.86948013 -10.659515 3.356861l-174.41321 146.21902c-6.178467 5.1797028 -6.9849243 14.384628 -1.8012695 20.559784l0 0l0 0c5.183655 6.1751556 14.394455 6.9821167 20.572922 1.802414z" fill-rule="evenodd"/></g></svg>