<svg version="1.1" viewBox="0.0 0.0 401.6719160104987 289.2965879265092" fill="none" stroke="none" stroke-linecap="square" stroke-miterlimit="10" xmlns:xlink="http://www.w3.org/1999/xlink" xmlns="http://www.w3.org/2000/svg"><clipPath id="p.0"><path d="m0 0l401.6719 0l0 289.2966l-401.6719 0l0 -289.2966z" clip-rule="nonzero"/></clipPath><g clip-path="url(#p.0)"><path fill="#000000" fill-opacity="0.0" d="m0 0l401.6719 0l0 289.2966l-401.6719 0z" fill-rule="evenodd"/><path fill="#ffffff" d="m192.78632 190.9056l0 0c15.376999 -39.764496 68.67273 -52.83638 119.03937 -29.196854c50.36664 23.639526 78.73132 75.03865 63.35434 114.80316l0 0c-12.765015 -32.766983 -41.3945 -61.962402 -77.275604 -78.80316c-35.881073 -16.840744 -74.825806 -19.361221 -105.1181 -6.8031464z" fill-rule="evenodd"/><path fill="#ffffff" d="m192.46852 75.23389l0 0c34.372116 -37.816284 103.10875 -23.425938 153.52754 32.14173c50.418823 55.56768 63.427246 131.27032 29.055115 169.08664l0 0c-42.427094 -82.29059 -107.88898 -154.43755 -182.58266 -201.22836z" fill-rule="evenodd"/><path fill="#ffffff" d="m287.72137 105.44464l0 0c1.8310547E-4 -3.1280518E-4 5.79834E-4 -4.119873E-4 8.8500977E-4 -2.2125244E-4l67.400696 42.173454c1.2207031E-4 9.1552734E-5 2.4414062E-4 2.2888184E-4 2.746582E-4 4.119873E-4c6.1035156E-5 1.6784668E-4 3.0517578E-5 3.5095215E-4 -6.1035156E-5 5.0354004E-4l-25.543549 42.61325c-1.8310547E-4 3.2043457E-4 -5.79834E-4 4.119873E-4 -8.8500977E-4 2.1362305E-4l-67.400665 -42.173447l0 0c-3.3569336E-4 -1.8310547E-4 -4.272461E-4 -5.950928E-4 -2.4414062E-4 -9.1552734E-4z" fill-rule="evenodd"/><path fill="#ffffff" d="m182.06693 93.31628l0 0c0 -4.7302246E-4 3.8146973E-4 -8.544922E-4 8.544922E-4 -8.544922E-4l102.487335 8.544922E-4c2.4414062E-4 0 4.5776367E-4 8.392334E-5 6.1035156E-4 2.4414062E-4c1.5258789E-4 1.6021729E-4 2.4414062E-4 3.8146973E-4 2.4414062E-4 6.0272217E-4l-8.544922E-4 63.904663c0 4.7302246E-4 -3.6621094E-4 8.544922E-4 -8.544922E-4 8.544922E-4l-102.487335 -8.544922E-4l0 0c-4.7302246E-4 0 -8.544922E-4 -3.8146973E-4 -8.544922E-4 -8.544922E-4z" fill-rule="evenodd"/><path fill="#ffffff" d="m182.06708 65.03038l0 0c0 -2.4414062E-4 1.9836426E-4 -4.4250488E-4 4.4250488E-4 -4.4250488E-4l53.79483 4.4250488E-4c1.2207031E-4 0 2.2888184E-4 4.5776367E-5 3.2043457E-4 1.296997E-4c7.6293945E-5 9.1552734E-5 1.2207031E-4 1.9836426E-4 1.2207031E-4 3.2043457E-4l-4.4250488E-4 16.09404c0 2.4414062E-4 -1.9836426E-4 4.5013428E-4 -4.5776367E-4 4.5013428E-4l-53.794815 -4.5013428E-4l0 0c-2.593994E-4 0 -4.5776367E-4 -1.9836426E-4 -4.5776367E-4 -4.5013428E-4z" fill-rule="evenodd"/><path fill="#ffffff" d="m212.31325 15.738085l0 0c4.496765 -2.2609034 9.975281 -0.44854927 12.236603 4.048004l0 0l0 0c1.0859222 2.1593227 1.2695465 4.6615067 0.5104675 6.9561005c-0.759079 2.2945938 -2.3986664 4.193636 -4.55809 5.27936l-198.64491 99.875534c-4.496765 2.26091 -9.975279 0.44856262 -12.236602 -4.0479965l0 0l0 0c-2.2613235 -4.496559 -0.4491396 -9.974556 4.0476265 -12.235458z" fill-rule="evenodd"/><path fill="#ffffff" d="m216.81448 217.5009l0 0c4.4707336 2.3129883 6.219513 7.8120575 3.9060059 12.2825165l0 0l0 0c-1.1109924 2.1467896 -3.0293274 3.7644196 -5.333023 4.4970245c-2.3036957 0.732605 -4.804016 0.5201721 -6.950943 -0.5905609l-194.26672 -100.505844c-4.4707355 -2.3129883 -6.219514 -7.81205 -3.9060059 -12.282509l0 0l0 0c2.313507 -4.4704666 7.813223 -6.219452 12.283958 -3.9064713z" fill-rule="evenodd"/><path fill="#ffffff" d="m224.84908 224.29265l0 0c0 5.035797 -4.082306 9.118118 -9.118103 9.118118l0 0l0 0c-2.418274 0 -4.737503 -0.96066284 -6.4474792 -2.670639c-1.7099762 -1.7099762 -2.670639 -4.0292053 -2.670639 -6.4474792l0 -199.30708c0 -5.0357933 4.082321 -9.118112 9.118118 -9.118112l0 0l0 0c5.035797 0 9.118103 4.0823183 9.118103 9.118112z" fill-rule="evenodd"/><path fill="#ffffff" d="m204.0195 33.513138l0 0c1.5258789E-4 -8.010864E-5 3.3569336E-4 -1.9073486E-5 4.272461E-4 1.335144E-4l17.07045 33.039234c3.0517578E-5 7.6293945E-5 3.0517578E-5 1.6021729E-4 1.5258789E-5 2.3651123E-4c-3.0517578E-5 8.392334E-5 -7.6293945E-5 1.449585E-4 -1.5258789E-4 1.8310547E-4l-163.46443 84.44053c-1.5258789E-4 7.6293945E-5 -3.3950806E-4 1.5258789E-5 -4.196167E-4 -1.373291E-4l-17.07045 -33.039238l0 0c-7.6293945E-5 -1.449585E-4 -1.9073486E-5 -3.3569336E-4 1.335144E-4 -4.119873E-4z" fill-rule="evenodd"/><path fill="#ffffff" d="m212.01772 185.6506l0 0c1.5258789E-4 9.1552734E-5 2.1362305E-4 2.746582E-4 1.2207031E-4 4.272461E-4l-17.7639 32.660995c-3.0517578E-5 7.6293945E-5 -1.0681152E-4 1.2207031E-4 -1.8310547E-4 1.5258789E-4c-7.6293945E-5 1.5258789E-5 -1.6784668E-4 1.5258789E-5 -2.2888184E-4 -3.0517578E-5l-161.60588 -87.96863c-1.487732E-4 -7.6293945E-5 -2.0599365E-4 -2.593994E-4 -1.2207031E-4 -4.119873E-4l17.7639 -32.661003l0 0c8.392334E-5 -1.5258789E-4 2.708435E-4 -2.0599365E-4 4.196167E-4 -1.2207031E-4z" fill-rule="evenodd"/><path fill="#ffffff" d="m174.8517 47.172l0 0c0 -1.7166138E-4 1.373291E-4 -3.0899048E-4 3.2043457E-4 -3.0899048E-4l37.16504 3.0899048E-4c7.6293945E-5 0 1.6784668E-4 3.4332275E-5 2.1362305E-4 9.1552734E-5c6.1035156E-5 5.722046E-5 9.1552734E-5 1.373291E-4 9.1552734E-5 2.2125244E-4l-3.0517578E-4 168.09418c0 1.6784668E-4 -1.373291E-4 3.0517578E-4 -3.0517578E-4 3.0517578E-4l-37.165054 -3.0517578E-4l0 0c-1.6784668E-4 0 -3.0517578E-4 -1.373291E-4 -3.0517578E-4 -3.2043457E-4z" fill-rule="evenodd"/><path fill="#ffffff" d="m97.07218 170.09842l0 0c-3.8909912E-4 0 -7.019043E-4 -3.0517578E-4 -7.019043E-4 -7.019043E-4l7.019043E-4 -84.18827c0 -1.8310547E-4 6.866455E-5 -3.6621094E-4 2.0599365E-4 -4.9591064E-4c1.296997E-4 -1.296997E-4 3.0517578E-4 -2.0599365E-4 4.9591064E-4 -2.0599365E-4l91.84182 7.019043E-4c3.8146973E-4 0 7.019043E-4 3.1280518E-4 7.019043E-4 7.019043E-4l-7.019043E-4 84.18827l0 0c0 3.9672852E-4 -3.2043457E-4 7.019043E-4 -7.019043E-4 7.019043E-4z" fill-rule="evenodd"/><path fill="#ffffff" d="m206.57874 76.31365l0 0c0 -2.0599365E-4 1.6784668E-4 -3.6621094E-4 3.6621094E-4 -3.6621094E-4l43.62169 3.6621094E-4c9.1552734E-5 0 1.8310547E-4 3.8146973E-5 2.593994E-4 9.918213E-5c6.1035156E-5 6.866455E-5 1.0681152E-4 1.6784668E-4 1.0681152E-4 2.593994E-4l-3.6621094E-4 30.298851c0 1.9836426E-4 -1.6784668E-4 3.6621094E-4 -3.6621094E-4 3.6621094E-4l-43.62169 -3.6621094E-4l0 0c-1.9836426E-4 0 -3.6621094E-4 -1.6021729E-4 -3.6621094E-4 -3.6621094E-4z" fill-rule="evenodd"/></g></svg>