<?xml version="1.0" encoding="utf-8"?>
<svg xmlns="http://www.w3.org/2000/svg" xmlns:xlink="http://www.w3.org/1999/xlink" style="margin: auto; background: rgb(255, 255, 255); display: block; shape-rendering: auto;" width="277px" height="277px" viewBox="0 0 100 100" preserveAspectRatio="xMidYMid">
<g transform="rotate(0 50 50)">
  <rect x="47" y="24" rx="2.2800000000000002" ry="2.2800000000000002" width="6" height="12" fill="#b8b8b8">
    <animate attributeName="opacity" values="1;0" keyTimes="0;1" dur="1.639344262295082s" begin="-1.4903129657228018s" repeatCount="indefinite"></animate>
  </rect>
</g><g transform="rotate(32.72727272727273 50 50)">
  <rect x="47" y="24" rx="2.2800000000000002" ry="2.2800000000000002" width="6" height="12" fill="#b8b8b8">
    <animate attributeName="opacity" values="1;0" keyTimes="0;1" dur="1.639344262295082s" begin="-1.3412816691505216s" repeatCount="indefinite"></animate>
  </rect>
</g><g transform="rotate(65.45454545454545 50 50)">
  <rect x="47" y="24" rx="2.2800000000000002" ry="2.2800000000000002" width="6" height="12" fill="#b8b8b8">
    <animate attributeName="opacity" values="1;0" keyTimes="0;1" dur="1.639344262295082s" begin="-1.1922503725782414s" repeatCount="indefinite"></animate>
  </rect>
</g><g transform="rotate(98.18181818181819 50 50)">
  <rect x="47" y="24" rx="2.2800000000000002" ry="2.2800000000000002" width="6" height="12" fill="#b8b8b8">
    <animate attributeName="opacity" values="1;0" keyTimes="0;1" dur="1.639344262295082s" begin="-1.0432190760059612s" repeatCount="indefinite"></animate>
  </rect>
</g><g transform="rotate(130.9090909090909 50 50)">
  <rect x="47" y="24" rx="2.2800000000000002" ry="2.2800000000000002" width="6" height="12" fill="#b8b8b8">
    <animate attributeName="opacity" values="1;0" keyTimes="0;1" dur="1.639344262295082s" begin="-0.8941877794336811s" repeatCount="indefinite"></animate>
  </rect>
</g><g transform="rotate(163.63636363636363 50 50)">
  <rect x="47" y="24" rx="2.2800000000000002" ry="2.2800000000000002" width="6" height="12" fill="#b8b8b8">
    <animate attributeName="opacity" values="1;0" keyTimes="0;1" dur="1.639344262295082s" begin="-0.7451564828614009s" repeatCount="indefinite"></animate>
  </rect>
</g><g transform="rotate(196.36363636363637 50 50)">
  <rect x="47" y="24" rx="2.2800000000000002" ry="2.2800000000000002" width="6" height="12" fill="#b8b8b8">
    <animate attributeName="opacity" values="1;0" keyTimes="0;1" dur="1.639344262295082s" begin="-0.5961251862891207s" repeatCount="indefinite"></animate>
  </rect>
</g><g transform="rotate(229.0909090909091 50 50)">
  <rect x="47" y="24" rx="2.2800000000000002" ry="2.2800000000000002" width="6" height="12" fill="#b8b8b8">
    <animate attributeName="opacity" values="1;0" keyTimes="0;1" dur="1.639344262295082s" begin="-0.44709388971684055s" repeatCount="indefinite"></animate>
  </rect>
</g><g transform="rotate(261.8181818181818 50 50)">
  <rect x="47" y="24" rx="2.2800000000000002" ry="2.2800000000000002" width="6" height="12" fill="#b8b8b8">
    <animate attributeName="opacity" values="1;0" keyTimes="0;1" dur="1.639344262295082s" begin="-0.29806259314456035s" repeatCount="indefinite"></animate>
  </rect>
</g><g transform="rotate(294.54545454545456 50 50)">
  <rect x="47" y="24" rx="2.2800000000000002" ry="2.2800000000000002" width="6" height="12" fill="#b8b8b8">
    <animate attributeName="opacity" values="1;0" keyTimes="0;1" dur="1.639344262295082s" begin="-0.14903129657228018s" repeatCount="indefinite"></animate>
  </rect>
</g><g transform="rotate(327.27272727272725 50 50)">
  <rect x="47" y="24" rx="2.2800000000000002" ry="2.2800000000000002" width="6" height="12" fill="#b8b8b8">
    <animate attributeName="opacity" values="1;0" keyTimes="0;1" dur="1.639344262295082s" begin="0s" repeatCount="indefinite"></animate>
  </rect>
</g>
<!-- [ldio] generated by https://loading.io/ --></svg>