<svg version="1.1" viewBox="0.0 0.0 191.10236220472441 178.98950131233596" fill="none" stroke="none" stroke-linecap="square" stroke-miterlimit="10" xmlns:xlink="http://www.w3.org/1999/xlink" xmlns="http://www.w3.org/2000/svg"><clipPath id="p.0"><path d="m0 0l191.10236 0l0 178.9895l-191.10236 0l0 -178.9895z" clip-rule="nonzero"/></clipPath><g clip-path="url(#p.0)"><path fill="#000000" fill-opacity="0.0" d="m0 0l191.10236 0l0 178.9895l-191.10236 0z" fill-rule="evenodd"/><path fill="#0180d5" d="m182.78227 144.46053l0 0c4.634201 0 8.390961 3.7567596 8.390961 8.390961l0 17.517303l0 0c0 2.225418 -0.88404846 4.35968 -2.4576569 5.933304c-1.5736084 1.5736084 -3.7078857 2.4576416 -5.933304 2.4576416l-174.46217 0c-4.634199 0 -8.39096 -3.7567596 -8.39096 -8.390945l0 -17.517303c0 -4.634201 3.7567604 -8.390961 8.39096 -8.390961z" fill-rule="evenodd"/><path fill="#0180d5" d="m182.05693 0.2296559l0 0c4.634201 0 8.390961 3.7567604 8.390961 8.390959l0 17.517294l0 0c0 2.225422 -0.88404846 4.3596935 -2.4576569 5.933304c-1.5736084 1.5736122 -3.7078857 2.4576569 -5.933304 2.4576569l-173.01335 0c-4.634199 0 -8.39096 -3.7567616 -8.39096 -8.390961l0 -17.517294c0 -4.6341987 3.7567606 -8.390959 8.39096 -8.390959z" fill-rule="evenodd"/><path fill="#0180d5" d="m182.05693 72.34509l0 0c4.634201 0 8.390961 3.7567596 8.390961 8.390961l0 17.517296l0 0c0 2.225418 -0.88404846 4.359688 -2.4576569 5.933304c-1.5736084 1.5736084 -3.7078857 2.4576492 -5.933304 2.4576492l-173.01335 0c-4.634199 0 -8.39096 -3.7567596 -8.39096 -8.390953l0 -17.517296c0 -4.634201 3.7567606 -8.390961 8.39096 -8.390961z" fill-rule="evenodd"/></g></svg>