<svg version="1.1" viewBox="0.0 0.0 169.41207349081364 303.86614173228344" fill="none" stroke="none" stroke-linecap="square" stroke-miterlimit="10" xmlns:xlink="http://www.w3.org/1999/xlink" xmlns="http://www.w3.org/2000/svg"><clipPath id="p.0"><path d="m0 0l169.41208 0l0 303.86615l-169.41208 0l0 -303.86615z" clip-rule="nonzero"/></clipPath><g clip-path="url(#p.0)"><path fill="#000000" fill-opacity="0.0" d="m0 0l169.41208 0l0 303.86615l-169.41208 0z" fill-rule="evenodd"/><path fill="#0180d5" d="m1.6824147 87.47113l0 0c0 -45.670036 37.17094 -82.69292 83.02363 -82.69292l0 0c22.019234 0 43.136612 8.712264 58.70656 24.220194c15.569962 15.507931 24.317062 36.541195 24.317062 58.47272l0 0c0 45.67003 -37.170944 82.69292 -83.02362 82.69292l0 0c-45.852684 0 -83.02363 -37.02289 -83.02363 -82.69292zm54.53763 0c0 15.549728 12.7536125 28.155281 28.485996 28.155281c15.732376 0 28.485992 -12.605553 28.485992 -28.155281c0 -15.549736 -12.753616 -28.155285 -28.485992 -28.155285l0 0c-15.732384 0 -28.485996 12.605549 -28.485996 28.155285z" fill-rule="evenodd"/><path fill="#0180d5" d="m155.3202 131.06824l-70.61417 122.86615l-70.614174 -122.86615z" fill-rule="evenodd"/></g></svg>