<svg version="1.1" viewBox="0.0 0.0 190.27034120734908 190.81102362204723" fill="none" stroke="none" stroke-linecap="square" stroke-miterlimit="10" xmlns:xlink="http://www.w3.org/1999/xlink" xmlns="http://www.w3.org/2000/svg"><clipPath id="p.0"><path d="m0 0l190.27034 0l0 190.81102l-190.27034 0l0 -190.81102z" clip-rule="nonzero"/></clipPath><g clip-path="url(#p.0)"><path fill="#000000" fill-opacity="0.0" d="m0 0l190.27034 0l0 190.81102l-190.27034 0z" fill-rule="evenodd"/><path fill="#0180d5" d="m108.30061 183.8616l0 0c0 3.5575714 -2.8839798 6.4415436 -6.4415436 6.4415436l-13.447617 0l0 0c-1.7084045 0 -3.34684 -0.67866516 -4.554863 -1.8866882c-1.2080231 -1.2080231 -1.8866882 -2.8464508 -1.8866882 -4.5548553l0 -176.91219c0 -3.557567 2.8839798 -6.4415445 6.441551 -6.4415445l13.447617 0c3.5575638 0 6.4415436 2.8839777 6.4415436 6.4415445z" fill-rule="evenodd"/><path fill="#0180d5" d="m183.59004 82.238846l0 0c3.5575714 0 6.4415436 2.8839798 6.4415436 6.4415436l0 13.447617l0 0c0 1.7084045 -0.67866516 3.34684 -1.8866882 4.554863c-1.2080231 1.2080231 -2.8464508 1.8866882 -4.5548553 1.8866882l-176.91219 0c-3.5575666 0 -6.4415445 -2.8839798 -6.4415445 -6.441551l0 -13.447617c0 -3.5575638 2.8839777 -6.4415436 6.4415445 -6.4415436z" fill-rule="evenodd"/></g></svg>