<svg version="1.1" viewBox="0.0 0.0 430.496062992126 424.82152230971127" fill="none" stroke="none" stroke-linecap="square" stroke-miterlimit="10" xmlns:xlink="http://www.w3.org/1999/xlink" xmlns="http://www.w3.org/2000/svg"><clipPath id="p.0"><path d="m0 0l430.49606 0l0 424.82153l-430.49606 0l0 -424.82153z" clip-rule="nonzero"/></clipPath><g clip-path="url(#p.0)"><path fill="#000000" fill-opacity="0.0" d="m0 0l430.49606 0l0 424.82153l-430.49606 0z" fill-rule="evenodd"/><path fill="#0180d5" d="m385.15298 382.31628l0 0c-53.533203 53.533203 -172.94043 20.940552 -266.76807 -72.81534c-93.827614 -93.75589 -126.580246 -213.20679 -73.17276 -266.8656l56.056496 55.970825l0 0c-22.472443 22.73973 10.259575 92.059044 73.13708 154.88849c62.877518 62.829453 132.12755 95.4142 154.73369 72.80806z" fill-rule="evenodd"/><path fill="#0180d5" d="m54.714664 31.802816l0 0c14.285877 -14.293264 37.450855 -14.296257 51.74043 -0.0066871643l25.575714 25.57572l0 0c6.862091 6.862091 10.71788 16.169792 10.719131 25.875519c0.0012664795 9.705719 -3.852127 19.014412 -10.712448 25.87828l-9.179642 9.184395l0 0c-14.285873 14.293259 -37.45085 14.296265 -51.740425 0.006690979l-25.575722 -25.575722c-14.28957 -14.289574 -14.292564 -37.460537 -0.0066871643 -51.753803z" fill-rule="evenodd"/><path fill="#0180d5" d="m345.065 333.7257l0 0c-45.8898 45.88983 -139.27751 27.520447 -210.4087 -41.38745c-71.13121 -68.90791 -94.02513 -163.1856 -51.581535 -212.41391l40.2249 37.747612c-21.517723 27.613617 0.6236267 87.559845 50.01252 135.40564c49.3889 47.84578 108.178116 66.30147 132.79216 41.687424z" fill-rule="evenodd"/><path fill="#0180d5" d="m312.83044 285.28323l0 0c12.4496765 -12.455994 32.637177 -12.458557 45.089996 -0.005706787l39.880676 39.880646l0 0c5.9800415 5.980072 9.34021 14.09137 9.341278 22.54953c0.0010681152 8.45816 -3.3570251 16.570312 -9.335571 22.55191l-17.18341 17.192078c-12.449707 12.455994 -32.637177 12.458527 -45.090027 0.005706787l-39.880646 -39.880676l0 0c-12.45285 -12.45282 -12.455414 -32.645416 -0.005706787 -45.10141z" fill-rule="evenodd"/></g></svg>